/* XPM */
static char *_1d0883261424f3db70c9edc4ce96265AXpc18Ysv8BLiTsM[] = {
/* columns rows colors chars-per-pixel */
"24 24 177 2 ",
"   c #1D2E15",
".  c #1C2F19",
"X  c #1D3415",
"o  c #1F3E14",
"O  c #1D3619",
"+  c #1F3818",
"@  c #202B13",
"#  c #242C1A",
"$  c #292D1E",
"%  c #233515",
"&  c #203A17",
"*  c #2F3917",
"=  c #24351B",
"-  c #29351C",
";  c #243A1B",
":  c #2B3C1B",
">  c #322E25",
",  c #3E2D2C",
"<  c #243621",
"1  c #2A3422",
"2  c #253A22",
"3  c #2D3B23",
"4  c #343024",
"5  c #383626",
"6  c #333A24",
"7  c #353529",
"8  c #3A362D",
"9  c #353B2C",
"0  c #3B3B2D",
"q  c #3D3E31",
"w  c #3F3E39",
"e  c #40362D",
"r  c #423A2D",
"t  c #462D30",
"y  c #433232",
"u  c #4E3437",
"i  c #423E32",
"p  c #443F3B",
"a  c #483F38",
"s  c #104416",
"d  c #1D451D",
"f  c #1C4A1C",
"g  c #2F4014",
"h  c #2C4119",
"j  c #29481C",
"k  c #36471D",
"l  c #1D4D25",
"z  c #224D22",
"x  c #304026",
"c  c #33462A",
"v  c #3B442E",
"b  c #285127",
"n  c #295228",
"m  c #255F2D",
"M  c #2C5C2D",
"N  c #315C2F",
"B  c #374430",
"V  c #3C4532",
"C  c #3C4B32",
"Z  c #26672F",
"A  c #286230",
"S  c #266934",
"D  c #2A6E31",
"F  c #306635",
"G  c #336D36",
"H  c #3C6C3B",
"J  c #2E7237",
"K  c #377230",
"L  c #307C31",
"P  c #3B7936",
"I  c #357038",
"U  c #3D773C",
"Y  c #3E7C3E",
"T  c #434334",
"R  c #4A4536",
"E  c #434B35",
"W  c #4B4A33",
"Q  c #45443B",
"!  c #4A443B",
"~  c #46493B",
"^  c #4A4B3C",
"/  c #534334",
"(  c #55453B",
")  c #584638",
"_  c #564D3D",
"`  c #415637",
"'  c #4B523C",
"]  c #425B3B",
"[  c #595235",
"{  c #54543A",
"}  c #5D543A",
"|  c #4F603C",
" . c #50623C",
".. c #437B3D",
"X. c #487B3F",
"o. c #493E42",
"O. c #3F7F42",
"+. c #474642",
"@. c #4D4441",
"#. c #474B43",
"$. c #4C4B42",
"%. c #4D4C48",
"&. c #524445",
"*. c #524C45",
"=. c #54434B",
"-. c #514C49",
";. c #4D5243",
":. c #4E5D46",
">. c #525143",
",. c #545A45",
"<. c #5F5A44",
"1. c #55524B",
"2. c #55594A",
"3. c #5C5E4A",
"4. c #625640",
"5. c #605B48",
"6. c #6A594F",
"7. c #596041",
"8. c #5B654D",
"9. c #477745",
"0. c #417B40",
"q. c #427D41",
"w. c #467C40",
"e. c #457E42",
"r. c #467D44",
"t. c #467F45",
"y. c #437D42",
"u. c #4A7C47",
"i. c #487F46",
"p. c #4D7F4A",
"a. c #757B62",
"s. c #7B7F68",
"d. c #857E6B",
"f. c #3D8138",
"g. c #43823C",
"h. c #3C8140",
"j. c #3E8342",
"k. c #3F8143",
"l. c #458040",
"z. c #478441",
"x. c #468046",
"c. c #448042",
"v. c #488041",
"b. c #4C8042",
"n. c #4E8043",
"m. c #498346",
"M. c #4D8347",
"N. c #488446",
"B. c #4A8344",
"V. c #468F46",
"C. c #4C8946",
"Z. c #4A8A40",
"A. c #45854A",
"S. c #4B8048",
"D. c #49854A",
"F. c #4F8748",
"G. c #4E854C",
"H. c #498449",
"J. c #46884B",
"K. c #4D8A4C",
"L. c #528445",
"P. c #548647",
"I. c #51864E",
"U. c #528A4B",
"Y. c #508D4A",
"T. c #568C4E",
"R. c #548D4E",
"E. c #54914E",
"W. c #588451",
"Q. c #568951",
"!. c #5A8A55",
"~. c #5C8B59",
"^. c #539150",
"/. c #569055",
"(. c #5A9551",
"). c #56965A",
"_. c #59A052",
/* pixels */
"V ~ 5 r a > v C 3 T u t V C 3 V 8 8 i B z b q , ",
"q V E v 8 8 0 C ] x t y 7 V ` c 8 8 p C M b 7 t ",
"5   z d # 0 4 @ s l - y r # d f = 4 4 @ f d # y ",
"0   Z A & 5 r % Z S . 4 e @ M F . q q = M N $ t ",
"T X I I + 9 T X J J X q ^ X G G X i T = H H $ y ",
";.O B.U & ;.^ & f.j.+ T %.= y.t.2 Q Q ; u.9.4 &.",
"^ ; Q.w.= Q ^ 2 ^.P % E #.2 !.Y - V ;.3 I.p.1 a ",
">.; X.L.3 q *.& ..J.: i 1.= q.F.- ! ;.O t.S.1 a ",
"&.- X.P.- @.&.1 g.K.: T *.7 y.U.- ^ ^ ; y.G.3 R ",
"*.% X.u.- ! &.1 ..z.- T -.1 ..e.= ^ @.+ O.t.: ! ",
"$.% w.w.- +.%.< q.Y & i %.< q...< p ^ + q.0.= T ",
"#.= L...< p -.< D...; T %.< D...1 Q ;.& B.Y - ! ",
"#.2 K.q.2 p %.< K.O.; T $.2 K.t.1 p $.; K.q.= R ",
"^ ; K.y.; w *.= J.k.; T $.; H.q.1 p $.; B.e.; T ",
"~ = S.y.- p *.< y.y.% R ^ ; c.q.1 o.#.; c.c.= T ",
"$.= y.0.- Q $.2 y.y.- ! ! ; X.e.= @.$.2 f.c.= R ",
"=.= g.Z.- R %.= Y C.: T R ; v.B.: Q $.= k.H.+ ! ",
"=.= f._.% ! +.< H.E.% T ^ 2 K (.% i @.$ A.).% ! ",
"o.3 J.L + Q +.2 J.c.; v ~ 2 K.g.% *.! < S.m.= ! ",
"-.= R.R.2 B #.< ~.!.& T ^ + Q.!.: 0 ^ 6 ~.W.3 r ",
"^ <.k g a.;.;.:.: * d.! 2.:.h h ~.! ! :.& j a.' ",
"0 W } [ R _ 9 ^ <.} ) ( 6 C 7.{ *.W 0 '  . .E E ",
"^ 3./ 4.5.9 ;.8._ ) 6.r ;.8.W _ 4.( ^ 8.W W ,.T ",
"W 0 / a W ;.C 9 / ( ( ( E 6 W W _ i ^ k W W W E "
};
